<svg width="25" height="24" viewBox="0 0 25 24" fill="none" xmlns="http://www.w3.org/2000/svg">
<path d="M18.5404 11.6272L18.4283 11.5304C18.0368 11.2399 17.4812 11.2721 17.1263 11.6272L13.5004 15.2529L13.5 6.33337L13.4909 6.19768C13.4247 5.70957 13.0063 5.33337 12.5 5.33337L12.3643 5.34251C11.8763 5.40872 11.5 5.82711 11.5 6.33337L11.5004 15.2556L7.87281 11.6264L7.76067 11.5296C7.36924 11.2391 6.81369 11.2712 6.4586 11.6261C6.068 12.0165 6.06788 12.6497 6.45833 13.0404L11.7916 18.3757L11.9039 18.4725C12.2953 18.7632 12.8509 18.7309 13.206 18.3759L18.5404 13.0415L18.6372 12.9292C18.9277 12.5377 18.8955 11.9823 18.5404 11.6272ZM4.83333 0C2.44009 0 0.5 1.94009 0.5 4.33333V19.6667C0.5 22.0599 2.44009 24 4.83333 24H20.1667C22.5599 24 24.5 22.0599 24.5 19.6667V4.33333C24.5 1.94009 22.5599 0 20.1667 0H4.83333ZM2.5 4.33333C2.5 3.04467 3.54467 2 4.83333 2H20.1667C21.4553 2 22.5 3.04467 22.5 4.33333V19.6667C22.5 20.9553 21.4553 22 20.1667 22H4.83333C3.54467 22 2.5 20.9553 2.5 19.6667V4.33333Z" fill="#33114B"/>
</svg>
