<svg width="21" height="19" viewBox="0 0 21 19" fill="none" xmlns="http://www.w3.org/2000/svg">
<path d="M11.0684 2.43074L10.2477 3.25325L9.42437 2.43C7.32535 0.330934 3.92208 0.330934 1.82302 2.43C-0.276049 4.52906 -0.276049 7.93232 1.82302 10.0314L9.71837 17.9267C10.0113 18.2196 10.4862 18.2196 10.7791 17.9267L18.6805 10.0299C20.7749 7.92392 20.7785 4.53019 18.6791 2.43074C16.5762 0.327854 13.1713 0.327854 11.0684 2.43074ZM17.6169 8.97222L10.2487 16.3358L2.88368 8.97072C1.37039 7.45742 1.37039 5.00394 2.88368 3.49066C4.39696 1.97737 6.85047 1.97737 8.36377 3.49066L9.72117 4.8481C10.0191 5.14597 10.5038 5.14016 10.7944 4.83525L12.1291 3.4914C13.6462 1.9743 16.1013 1.9743 17.6184 3.4914C19.1321 5.00505 19.1295 7.45132 17.6169 8.97222Z" fill="white"/>
</svg>
