<svg width="21" height="20" viewBox="0 0 21 20" fill="none" xmlns="http://www.w3.org/2000/svg">
<path d="M0.252441 2.5C0.252441 2.08579 0.588231 1.75 1.00244 1.75H1.5607C2.51117 1.75 3.08026 2.38899 3.40569 2.98299C3.6226 3.37894 3.77952 3.83818 3.90226 4.25395C3.9355 4.25134 3.96918 4.25 4.00324 4.25H16.5005C17.3307 4.25 17.9302 5.04442 17.7026 5.8428L15.8748 12.2519C15.538 13.4332 14.4586 14.2478 13.2303 14.2478H7.28221C6.04372 14.2478 4.95804 13.4199 4.63027 12.2256L3.86978 9.4545L2.61118 5.20578L2.60914 5.19834C2.45344 4.63051 2.30731 4.10005 2.09017 3.7037C1.8793 3.3188 1.71121 3.25 1.5607 3.25H1.00244C0.588231 3.25 0.252441 2.91421 0.252441 2.5ZM5.32527 9.0903L6.07678 11.8286C6.22577 12.3715 6.71926 12.7478 7.28221 12.7478H13.2303C13.7886 12.7478 14.2792 12.3775 14.4324 11.8406L16.1692 5.75H4.33793L5.3115 9.0368C5.31678 9.0546 5.32136 9.0724 5.32527 9.0903ZM8.75244 17.25C8.75244 18.3546 7.85704 19.25 6.75244 19.25C5.64787 19.25 4.75244 18.3546 4.75244 17.25C4.75244 16.1454 5.64787 15.25 6.75244 15.25C7.85704 15.25 8.75244 16.1454 8.75244 17.25ZM7.25244 17.25C7.25244 16.9739 7.02858 16.75 6.75244 16.75C6.4763 16.75 6.25244 16.9739 6.25244 17.25C6.25244 17.5261 6.4763 17.75 6.75244 17.75C7.02858 17.75 7.25244 17.5261 7.25244 17.25ZM15.7524 17.25C15.7524 18.3546 14.857 19.25 13.7524 19.25C12.6478 19.25 11.7524 18.3546 11.7524 17.25C11.7524 16.1454 12.6478 15.25 13.7524 15.25C14.857 15.25 15.7524 16.1454 15.7524 17.25ZM14.2524 17.25C14.2524 16.9739 14.0285 16.75 13.7524 16.75C13.4763 16.75 13.2524 16.9739 13.2524 17.25C13.2524 17.5261 13.4763 17.75 13.7524 17.75C14.0285 17.75 14.2524 17.5261 14.2524 17.25Z" fill="white"/>
<circle cx="17" cy="4" r="4" fill="#FF0000"/>
<path d="M16.111 5V4.796L16.966 3.971C17.042 3.899 17.098 3.836 17.134 3.782C17.172 3.726 17.197 3.675 17.209 3.629C17.223 3.581 17.23 3.535 17.23 3.491C17.23 3.383 17.192 3.298 17.116 3.236C17.04 3.174 16.929 3.143 16.783 3.143C16.671 3.143 16.57 3.162 16.48 3.2C16.39 3.236 16.312 3.293 16.246 3.371L16.042 3.194C16.122 3.092 16.229 3.014 16.363 2.96C16.499 2.904 16.648 2.876 16.81 2.876C16.956 2.876 17.083 2.9 17.191 2.948C17.299 2.994 17.382 3.061 17.44 3.149C17.5 3.237 17.53 3.341 17.53 3.461C17.53 3.529 17.521 3.596 17.503 3.662C17.485 3.728 17.451 3.798 17.401 3.872C17.351 3.946 17.279 4.029 17.185 4.121L16.423 4.856L16.351 4.739H17.62V5H16.111Z" fill="white"/>
</svg>
